<svg xmlns="http://www.w3.org/2000/svg" xmlns:xlink="http://www.w3.org/1999/xlink" xmlns:xodm="http://www.corel.com/coreldraw/odm/2003" xml:space="preserve" version="1.1" style="shape-rendering:geometricPrecision;text-rendering:geometricPrecision;image-rendering:optimizeQuality;" viewBox="0 0 60000 75000" x="0px" y="0px" fill-rule="evenodd" clip-rule="evenodd"><defs><style type="text/css">
   
    .fil0 {fill:black;fill-rule:nonzero}
   
  </style></defs><g><path class="fil0" d="M22597.94 18606.75l2155.72 380.12c1485.33,261.9 2027.49,1254.09 2683.82,2455.24 104.52,191.29 212.42,388.73 342.8,613.54 3.06,5.28 5.95,10.6 8.74,15.95l0.64 -0.33 3932.85 7561.48c1898.16,-3102.52 3211.48,-6424.2 2637.78,-10293 -31.92,-218.32 119.18,-421.2 337.5,-453.12 93.98,-13.74 185.08,6.45 260.94,51.31 82.78,11.8 157.73,64.95 193.59,147.23 995.31,2290.93 1098.84,4573.3 635.96,6809.04 -459.9,2221.37 -1477.66,4390.67 -2732.68,6473.26 -463.34,768.89 -963.17,1531.69 -1481.5,2284.31 -514.52,747.11 -1045.1,1480.35 -1575.28,2197.94 -381.76,516.68 -787.57,1057.23 -1186.02,1588 -161.33,214.88 -322.74,429.91 -707,945.01 -1192.89,1599.05 -2270.82,3096.59 -3008.56,4458.8 -722.87,1334.79 -1120.72,2537.72 -979.3,3576.19 16.91,125.91 -63.31,242.49 -183.02,274.15 -51.17,36.53 -111.72,61.48 -178.37,70.44 -218.32,29.34 -419.1,-123.86 -448.44,-342.18 -490.2,-3599.39 897.79,-6729.35 2855.04,-9768.77l-8133.1 -8743.04c-4.8,-5.16 -9.43,-10.42 -13.91,-15.76l-0.15 0.13c-145.43,-174.02 -305.3,-355.69 -460.22,-531.74 -903.73,-1027 -1650.25,-1875.36 -1388.35,-3360.77l380.73 -2159.17c-377.75,-52.33 -724.1,-49.16 -1028.87,16.6 -775.88,167.41 -1530.85,434.06 -2250.61,688.28 -1009.73,356.63 -1953.28,689.88 -2866.08,726.55 -1195.72,48.01 -2133.49,-290.52 -2816.57,-835.58 -561.18,-447.79 -947.17,-1031.84 -1161.67,-1655.25 -213.68,-621 -257.02,-1285.29 -133.67,-1895.55 143.76,-711.17 514.27,-1349.79 1106.61,-1769 304.62,-215.57 623.3,-367.68 944.13,-459.32 568.89,-162.51 1150.3,-141.67 1680.1,46.69 527.6,187.57 1001.85,541.49 1358.82,1045.92 109.75,155.08 208.02,323.39 292.87,504.35 634.53,-444.13 1328.37,-744 2051.89,-911.27 -812.01,-822.37 -1579.74,-1640.96 -2236.49,-2367.87 -949.85,-1051.34 -1664.63,-1909.45 -1945.08,-2310 -955.15,-1364.11 -899.94,-2785.28 -285.39,-3947.82 -4.89,-4.4 -9.7,-8.96 -14.42,-13.65 -735.1,-730.93 -1437.68,-1475.91 -2024.55,-2125.5 -721.09,-798.13 -1264.56,-1450.79 -1478.6,-1756.48 -821.16,-1172.71 -758.78,-2341.93 -236.2,-3206.16 202.31,-334.57 476.03,-622.7 796.03,-846.77 319.6,-223.79 683.78,-382.31 1067.47,-458.01 990.72,-195.47 2110.81,146.06 2932.32,1319.32 216.01,308.49 643.9,1042.6 1145.4,1989.65 406.93,768.46 865.95,1682.37 1304.36,2629.6 2.85,6.18 5.53,12.39 8.03,18.63 1302.64,-179.78 2656.9,254.4 3611.95,1618.36 282.45,403.38 844.86,1368.82 1506.09,2617.52 453.74,856.86 956.61,1850.85 1450.77,2892.82 416.8,-616.39 939.99,-1159.85 1566.29,-1597.92 -141.79,-142.05 -266.71,-292.13 -374.89,-448.28 -350.59,-506.06 -520.3,-1071.87 -516.13,-1631.88 4.22,-564.38 183.32,-1118.77 530.26,-1597.3 196.86,-271.52 448.8,-519.34 754.48,-731.11 596.7,-413.37 1323.11,-543.24 2039.73,-435.22 613.54,92.49 1223.3,361.48 1736.69,777.03 512.15,414.55 928.67,976.5 1157.24,1656.17 278.68,828.64 276.13,1825.86 -177.95,2933.05 -345.48,842.37 -982.07,1615.89 -1663.28,2443.66 -484.36,588.57 -992.42,1205.92 -1417.17,1881.05 -165.97,263.81 -286.17,587.93 -364.12,960.43zm17031.56 13309.29c669.72,1605.97 733.58,3204.91 409.23,4771.51 -328.87,1588.45 -1055.42,3137.6 -1951.06,4623.84 -58.74,97.48 -118.35,194.88 -178.74,292.17 43.26,34.05 80.14,77.63 107.18,129.65l8857.91 17030.63c101.83,195.88 25.57,437.24 -170.31,539.07 -170.37,88.57 -375.12,42.39 -492.57,-100.01l-11802.85 -12688.03c-783.43,1055.22 -1486.16,2045.32 -1975.45,2948.79 -399.07,736.87 -657.05,1414.8 -700.92,2021.66 10.21,131.52 23.87,263.72 42,396.81 29.34,218.32 -123.86,419.1 -342.18,448.44 -218.32,29.34 -419.1,-123.86 -448.44,-342.18 -494.33,-3629.68 1651.07,-6577.59 3859.19,-9611.65 2262.78,-3109.17 4594.33,-6312.84 3996.32,-10345.56 -31.92,-218.32 119.18,-421.2 337.5,-453.12 218.32,-31.92 421.2,119.18 453.12,337.5l0.07 0.48zm-2196.36 10428.97c-131.38,198.62 -265.27,396.57 -401.01,593.67 -366.23,531.77 -743.81,1053.58 -1121.08,1564.2 -266.87,361.2 -557.73,748.64 -843.33,1129.08 -49.01,65.29 -98.1,130.69 -182.01,242.88 27.92,17.82 54.06,39.42 77.67,64.79l8499.6 9137.04 -6806.15 -9720.19c-78.74,-112.72 -51.2,-267.94 61.52,-346.68 112.72,-78.74 267.94,-51.2 346.68,61.52l6944.52 9917.8 -6576.41 -12644.11zm-5562.56 7115.89c39.41,-77.35 80.36,-155.2 122.8,-233.56 539.38,-995.96 1314.98,-2074.07 2171.79,-3222.61l504.11 -671.59c269.11,-358.47 543.17,-723.54 841.37,-1127.14 374.35,-506.67 748.76,-1024.07 1111.32,-1550.52 358.76,-520.93 708.21,-1054.69 1037.96,-1601.91 870.6,-1444.69 1575.36,-2943.36 1890.52,-4465.62 164.07,-792.45 222.82,-1592.93 144.67,-2397.54 -300.97,3284.7 -2278.7,6002.95 -4208.87,8655.09 -1579.68,2170.56 -3125.79,4295.03 -3615.67,6615.4zm3425.85 -28355.38c32.32,5163.7 -2996.06,9325.66 -5944.82,13377.4 -2451.39,3368.34 -4845.2,6658.39 -5274.65,10339.12 159.89,-394.8 355.39,-800.56 580.82,-1216.83 755.31,-1394.66 1844.26,-2908.21 3047.62,-4521.3 80.16,-107.46 391.84,-522.61 708.96,-945.01 381.91,-508.73 770.83,-1026.79 1184.06,-1586.06 527.26,-713.64 1054.67,-1442.49 1565.52,-2184.26 507.05,-736.23 1000.07,-1489.21 1463.92,-2258.93 1229.97,-2041.04 2225.94,-4159.85 2672.14,-6315.04 320.07,-1545.94 357.83,-3113.74 -3.57,-4689.09zm-4067.69 9310.52l-4148.46 -7976.01 0.26 -0.13c-112.77,-195.09 -229.67,-409 -343.06,-616.53 -554.65,-1015.06 -1012.82,-1853.55 -2121.32,-2049l-503.06 -88.7c73.14,593.54 213.49,1236.32 436.76,1937.23 255.79,802.98 620.39,1682.47 1117.21,2651.82 1210.77,2362.43 1666.57,4158.39 1528.67,5268.38 -48.02,386.56 -166.98,698.72 -350.87,932.31l1810.76 2586.04c78.74,112.72 51.2,267.94 -61.52,346.68 -112.72,78.74 -267.94,51.2 -346.68,-61.52l-1783.39 -2546.94c-322,177.01 -729.82,214.57 -1211.29,104.15 -1091.51,-250.33 -2623.77,-1292.76 -4428.9,-3237.74 -741.49,-798.95 -1443.28,-1442.44 -2109.96,-1957.15 -582.24,-449.52 -1138.08,-801.14 -1670.55,-1072.72l-88.42 501.47c-195.43,1108.41 436.2,1826.21 1200.85,2695.15 148.24,168.46 301.18,342.26 468.45,542.25l7990.76 8590.04c662.8,-985.86 1375.43,-1965.16 2092.87,-2950.96 860.8,-1182.77 1728.53,-2375.25 2520.89,-3598.12zm-4912.93 -112.38c16.34,-23.49 37.02,-44.56 61.85,-61.9 7.55,-5.28 15.3,-10.07 23.2,-14.39 155.87,-163.02 257.52,-412.71 298.78,-744.81 80.54,-648.3 -68.15,-1568.47 -485.07,-2734.51 68.14,510.89 61.77,954.55 -11.57,1325.07 -102.95,520.16 -336.24,907.58 -680.81,1148.84 -343.7,240.66 -787.12,327.06 -1311.18,245.9 -374.05,-57.93 -794.04,-204.08 -1251.79,-443.57 954.14,792.12 1768.34,1247.22 2404.85,1393.21 396.83,91.01 709.97,56.21 928.25,-96.63 7.94,-5.56 15.76,-11.31 23.49,-17.21zm-2724.16 -10709.94l-1093.58 -192.83c-35.5,642.42 17.96,1375.16 149.14,2159.2 299.58,1790.55 1006.55,3821.68 1992.28,5658.93 95.98,161.26 67.44,373.01 -77.95,502.42 -164.82,146.7 -417.37,132.01 -564.07,-32.81 -1385.21,-1552.8 -3057.72,-2902.71 -4644.3,-3790.26 -708.09,-396.11 -1394.46,-699.03 -2023.75,-884.54l-194.07 1100.62c537.28,211.21 1090.68,501.83 1661.39,891.07 608.51,415 1238.53,943.16 1891.9,1608.09 1442.05,1467.55 2687.16,2220.91 3598.55,2362.07 392.28,60.75 713.27,3.72 949.84,-161.92 235.72,-165.05 398.65,-446.89 475.73,-836.34 179.15,-905.1 -102.82,-2332.96 -988.54,-4189.73 -401.12,-840.87 -681.94,-1613.71 -863.97,-2328.16 -170.27,-668.26 -253.94,-1287.72 -268.6,-1865.81zm-13887.52 -10557.05c287.82,-362.45 633.56,-684.97 1017.28,-953.66 382.43,-267.77 803.48,-481.89 1243.35,-628.44 -414.39,-888.67 -843.48,-1741.25 -1225.43,-2462.55 -489.47,-924.32 -896.15,-1625.2 -1092.26,-1905.27 -610.62,-872.07 -1419.72,-1130.56 -2126.08,-991.2 -276.31,54.51 -537.04,167.6 -764.33,326.75 -226.91,158.88 -422.15,365.1 -567.91,606.15 -372.46,615.97 -406.07,1464.8 204.94,2337.4 198.08,282.89 717.63,905.27 1416.1,1678.36 543.32,601.39 1196.78,1294.92 1894.34,1992.46zm788.75 4562.66c-99.59,-791.08 197.62,-1585.32 721.79,-2264.81 294.89,-382.25 663.18,-728.03 1072.7,-1014.78 408.68,-286.16 859.54,-513.81 1320.5,-660.45 817.48,-260.07 1665.18,-267.72 2374.38,96.22 -106.05,-173.62 -195.61,-312.79 -265.44,-412.52 -852.01,-1216.81 -2104.82,-1500.16 -3248.96,-1206.76 -455.93,116.92 -896.3,324.1 -1290.18,599.9 -392.13,274.57 -736.93,617.49 -1003.59,1007.19 -667.13,974.93 -829.42,2249.2 22.57,3465.98 70.03,100.01 169.95,231.59 296.23,390.03zm1269.73 6592.73c-45.05,42.37 -100.63,74.88 -164.21,92.97 -212.28,60.4 -433.36,-62.72 -493.76,-275 -88.62,-310.22 -216.72,-577.63 -374.3,-800.3 -257.33,-363.64 -597.37,-618.12 -974.44,-752.18 -374.87,-133.27 -788.6,-147.35 -1195.72,-31.05 -241.68,69.03 -479.25,181.86 -703.51,340.56 -416.72,294.92 -679.76,755.95 -784.73,1275.26 -95.28,471.38 -59.94,989.9 108.67,1479.91 167.77,487.61 467.71,942.86 902.29,1289.63 544.05,434.12 1304.05,703.22 2288.43,663.7 788.16,-31.66 1678.71,-346.19 2631.72,-682.79 743.07,-262.45 1522.48,-537.74 2350.61,-716.42 1132.22,-244.29 2657.49,181.7 4250.59,1049.87 -151.73,-214.45 -291.57,-434.59 -419.63,-659.41 -486.83,-854.68 -802.57,-1776.99 -953.1,-2709.71 -215.32,-110.63 -434.35,-210.14 -656.06,-298.03 -1130.8,-448.27 -2330.03,-594.8 -3455.04,-383.32 -847.16,159.24 -1653.73,523.24 -2357.81,1116.31zm10166.38 1882.02c-24.99,-128.61 -48.12,-256.24 -69.28,-382.73 -307.73,-1839.18 -205.84,-3463.6 427.35,-4470.03 449.08,-713.8 975.09,-1352.96 1476.55,-1962.31 641.47,-779.48 1240.92,-1507.87 1541.4,-2240.52 373.81,-911.47 380.94,-1717.44 159.19,-2376.81 -177.5,-527.81 -503.01,-965.88 -904.1,-1290.53 -399.87,-323.67 -874.69,-533.17 -1352.33,-605.17 -524.74,-79.09 -1048.36,10.26 -1467.85,300.86 -226.93,157.21 -414.18,341.49 -560.72,543.61 -248.86,343.25 -377.31,735.94 -380.26,1131.66 -2.98,400.09 120.5,807.54 375.51,1175.64 156.07,225.27 363.26,437.18 623.04,625.52 178.63,129.44 218.5,379.19 89.06,557.82 -38.87,53.64 -88.59,94.75 -143.97,122.53 -942.41,541.61 -1656.49,1341.22 -2129.6,2280.11 -489.96,972.32 -722.2,2093.75 -683.37,3234.58 6.03,177.35 18.65,355.13 37.87,532.88 842.16,487.32 1621.31,1131.1 2282.27,1909.57 243.24,286.48 470.53,591.31 679.24,913.32zm-3132.53 -6733.84c-349.05,-813.25 -733.2,-1617.47 -1090.59,-2320.94 -530.43,-1044.06 -998.37,-1861.3 -1204.3,-2155.42 -645.76,-922.25 -1718.47,-1056.02 -2743.3,-729.99 -412.18,131.12 -817.07,335.9 -1185.74,594.05 -367.82,257.55 -698.55,568.06 -963.32,911.26 -656.77,851.38 -897.81,1905.08 -251.96,2827.44 205.61,293.66 813.6,1012.86 1613.99,1869.17 550.03,588.43 1188.89,1238.72 1847.28,1855.58 1016.35,-51.91 2058.73,133.83 3050.7,527.06 89.42,35.45 178.42,72.64 266.98,111.45 -1.3,-28.87 -2.49,-57.74 -3.47,-86.59 -40.49,-1189.51 184.87,-2363.29 663.73,-3403.07zm369.03 4984.07c158.15,601.42 395.11,1190.83 712.89,1748.74 538.69,945.68 1310.97,1800.57 2326.77,2469.53 -334.25,-1095.01 -880.39,-2060.15 -1564.78,-2866.2 -441.19,-519.63 -939.39,-972.92 -1474.88,-1352.07z"/></g><text x="0" y="60015" fill="#000000" font-size="5px" font-weight="bold" font-family="'Helvetica Neue', Helvetica, Arial-Unicode, Arial, Sans-serif">Created by Olena Panasovska</text><text x="0" y="60020" fill="#000000" font-size="5px" font-weight="bold" font-family="'Helvetica Neue', Helvetica, Arial-Unicode, Arial, Sans-serif">from the Noun Project</text></svg>